<svg xmlns="http://www.w3.org/2000/svg" width="1440.689" height="783.824" viewBox="0 0 1440.689 783.824">
  <g id="Group_122" data-name="Group 122" transform="translate(-233.658 -152.001)">
    <g id="carts" transform="translate(402.084 546.736) rotate(11)" opacity="0.315">
      <g id="Group_55" data-name="Group 55" transform="translate(23.19 76.375)">
        <circle id="Ellipse_17" data-name="Ellipse 17" cx="9.662" cy="9.662" r="9.662" transform="translate(38.65)" fill="#455a64"/>
        <circle id="Ellipse_18" data-name="Ellipse 18" cx="9.662" cy="9.662" r="9.662" fill="#455a64"/>
      </g>
      <path id="Path_78" data-name="Path 78" d="M158.284,75.324a1.932,1.932,0,0,0-1.449-.653H87.264A1.932,1.932,0,0,0,85.37,76.99l7.73,38.65a2.093,2.093,0,0,0,2.149,1.546l57.975-7.73a1.932,1.932,0,0,0,1.662-1.677l3.865-30.92A1.932,1.932,0,0,0,158.284,75.324Z" transform="translate(-69.871 -52.406)" fill="#d2ea9b"/>
      <g id="Group_56" data-name="Group 56" transform="translate(27.064 29.951)">
        <path id="Path_79" data-name="Path 79" d="M155.173,144.652a1.932,1.932,0,0,1-1.905-1.616l-3.865-23.19a1.933,1.933,0,0,1,3.811-.634l3.865,23.19a1.933,1.933,0,0,1-1.589,2.222A1.862,1.862,0,0,1,155.173,144.652Z" transform="translate(-149.385 -117.553)" fill="#fafafa"/>
        <path id="Path_80" data-name="Path 80" d="M217.159,142.423a1.932,1.932,0,0,1-1.933-1.759l-1.933-21.258a1.932,1.932,0,0,1,1.743-2.105h.016a1.933,1.933,0,0,1,2.1,1.751h0l1.933,21.257a1.933,1.933,0,0,1-1.751,2.1h0Z" transform="translate(-201.708 -117.257)" fill="#fafafa"/>
        <path id="Path_81" data-name="Path 81" d="M279.266,140.527a1.933,1.933,0,0,1-1.933-1.933V119.27a1.933,1.933,0,0,1,3.865,0v19.325A1.933,1.933,0,0,1,279.266,140.527Z" transform="translate(-254.152 -117.293)" fill="#fafafa"/>
        <path id="Path_82" data-name="Path 82" d="M332.539,138.549h-.217a1.933,1.933,0,0,1-1.718-2.125l0-.02,1.933-17.393a1.959,1.959,0,0,1,2.145-1.72,1.933,1.933,0,0,1,1.708,2.133h0l-1.932,17.393A1.933,1.933,0,0,1,332.539,138.549Z" transform="translate(-297.764 -117.248)" fill="#fafafa"/>
        <path id="Path_83" data-name="Path 83" d="M385.935,136.464a1.932,1.932,0,0,1-1.875-2.4l3.865-15.46a1.933,1.933,0,1,1,3.771.848q-.01.044-.022.087L387.809,135A1.932,1.932,0,0,1,385.935,136.464Z" transform="translate(-341.497 -117.096)" fill="#fafafa"/>
      </g>
      <path id="Path_84" data-name="Path 84" d="M79.233,72.51H34.627A13.566,13.566,0,0,1,21.362,61.638l-9.419-47.1H1.933a1.933,1.933,0,0,1,0-3.865h11.6a1.932,1.932,0,0,1,1.894,1.546l9.732,48.661a9.69,9.69,0,0,0,9.473,7.769H79.233a1.933,1.933,0,0,1,0,3.865Z" transform="translate(0 0)" fill="#455a64"/>
    </g>
    <g id="ice-cream" transform="translate(1377.187 733.879) rotate(9)" opacity="0.518">
      <path id="Path_99" data-name="Path 99" d="M213.927,316.294l4.736-17.893-1.276-4.627,2.714-.8,1.776-6.71.9-6.308,1.78-3.8,3.015-11.391.082-5.13,2.71-5.419L234.7,237.8l-4.8-4.5H195.483L210.7,318.184a2.625,2.625,0,0,0,3.222-1.889Z" transform="translate(-57.854 -176.383)" fill="#ffe07d"/>
      <path id="Path_100" data-name="Path 100" d="M218.2,235.949l-4.137-2.069-19.69,13.425-7.16-4.882-.782-9.122-15.394,4.5,4.344,16.409,3.367,6.232-.575,4.316,3.016,11.392,2.64,5.225.035,4.885,1.776,6.711L188.3,295.5l-1.222,2.9,4.736,17.892a2.578,2.578,0,0,0,1.9,1.89l-1.969-22.962,2.633-1.795,7.3,4.974,1.437-5.429-4.033-2.75,5.809-3.961,2.676-10.111-8.485-5.786,9.861-6.724,1.64,1.118,2.792-10.549-4.432,3.022-9.861-6.724L217.714,237.8ZM189.677,250.51l-1.669,1.138-.207-2.417Zm-.068,19.81.069.047-.061.042Zm14.63,9.975-9.862,6.724-3.543-2.416-.7-8.139,4.241-2.892Zm0-19.856-9.861,6.724-5.352-3.649-.5-5.81,5.849-3.988Z" transform="translate(-40.335 -176.384)" fill="#ffd064"/>
      <g id="Group_59" data-name="Group 59" transform="translate(131.347 57.96)">
        <path id="Path_101" data-name="Path 101" d="M210.228,383.016l4.661-3.178-.911-10.623-6.315-4.306,5.618-3.831-.519-6.055-8.423,5.743,2.676,10.109,5.81,3.962-4.033,2.75Z" transform="translate(-193.696 -318.958)" fill="#ffc250"/>
        <path id="Path_102" data-name="Path 102" d="M185.287,296.047l2.792,10.548,1.64-1.118,9.792,6.676-.583-6.807-4.509-3.074,4.011-2.735-.519-6.055-8.191,5.585Z" transform="translate(-180.453 -276.178)" fill="#ffc250"/>
        <path id="Path_103" data-name="Path 103" d="M186.68,251.606,186.1,244.8l-11.851-8.08-4.816,1.605.491,1.854Z" transform="translate(-169.43 -236.72)" fill="#ffc250"/>
      </g>
      <path id="Path_104" data-name="Path 104" d="M173.988,76.106a2.648,2.648,0,0,1-2.242-1.233L169.1,70.682a2.648,2.648,0,1,1,4.478-2.828l2.647,4.191a2.647,2.647,0,0,1-2.236,4.062Z" transform="translate(-37.287 -46.311)" fill="#ffe07d"/>
      <path id="Path_105" data-name="Path 105" d="M241.107,11.446c-.163-.87.358-2.19-.372-2.947-3.549-3.679-12.813-6.043-18.265-7.163l-3.541,3.251c-1.455,4.418.423,13.022-9.679,23.019,5.394-1.32,4.557-1.786,9.537-2.629,18.522-3.134,23.644-6.471,22.321-13.53Z" transform="translate(-67.474 -0.928)" fill="#ead1ff"/>
      <path id="Path_106" data-name="Path 106" d="M225.232,10.011a4.955,4.955,0,0,0-1.383-2.441,8.7,8.7,0,0,1-3.968,4.757c-3.122,1.83-9.16,3.322-13.693,4.255a3.088,3.088,0,0,1-3.516-4.116A43.136,43.136,0,0,0,205.584.408c-.668-.137-1.3-.262-1.833-.362a2.626,2.626,0,0,0-2.984,1.778,64.3,64.3,0,0,1-15.808,24.854c1.67-.409,3.451-.73,5.258-1.012l-.006.011c4.049-.63,8.246-1.046,11.689-1.629,18.522-3.134,24.655-6.977,23.331-14.037Z" transform="translate(-50.188)" fill="#d6bdef"/>
      <path id="Path_107" data-name="Path 107" d="M169.544,51.17c-4.356.814-9.479,1.6-14.229,2.912-9.411,2.591-14.285,8.4-11.9,19.247,0,0,48.25-4.785,49.449-5.282S199.928,53.8,199.928,53.8l1.093-4.705c-.428-3.1-2.7-6.58-9.986-8.292C190.512,46.086,184.239,48.424,169.544,51.17Z" transform="translate(-18.055 -28.362)" fill="#ff9a9f"/>
      <path id="Path_108" data-name="Path 108" d="M193.763,68a5.614,5.614,0,0,1-.914,1.3c-4.329,4.469-19.2,7.272-29.957,8.363-5.079.515-10.156,1.288-15.19,2.294-2.253.451-3.808-2.328-2.447-4.35a14.691,14.691,0,0,1,2.57-2.623c-9.336,2.605-17.42,7.317-15.041,18.061,0,0,51.581-3.6,52.786-4.1s7.078-12.906,7.078-12.906A10.532,10.532,0,0,0,193.763,68Z" transform="translate(-10.789 -47.272)" fill="#ff8086"/>
      <path id="Path_109" data-name="Path 109" d="M187.016,87.652c-4.3,6.407-16.817,7.647-29.935,8.954a161.81,161.81,0,0,0-20.386,3.36c-1.341.31-2.606,1.472-3.94,1.815-16.257,5.626-8.957,17.772-2.331,19.968L184.959,109.1l14.435-6.866q.027-.091.053-.183c2.2-7.837-5.274-13.626-12.431-14.4Z" transform="translate(-4.217 -64.042)" fill="#ead1ff"/>
      <path id="Path_110" data-name="Path 110" d="M122.56,150.921l57.588-10.834c7.589-1.475,13.335-4.273,14.995-9.777-3.722,1.759-11.293,4.294-25.951,5.786-5.152.524-10.734.723-16.133.9-7.792.253-14.976.488-20.866,1.7a3.986,3.986,0,0,1-4.171-5.755,13.321,13.321,0,0,1,4.341-4.9l-4.019.98C112.066,134.651,115.926,148.726,122.56,150.921Z" transform="translate(0 -93.172)" fill="#d6bdef"/>
      <path id="Path_111" data-name="Path 111" d="M200.873,163.793s-3.538,1.224-14.769,2.424c-11.753,1.256-25.2.623-34.679,2.281-4.2.734-6.113,4.183-8.262,6.181-6.525,6.065,1.192,11.432,9.059,11.432h40.07l9.775-2.95C206.136,178.846,207.587,171.8,200.873,163.793Z" transform="translate(-16.593 -119.162)" fill="#ff9a9f"/>
      <path id="Path_112" data-name="Path 112" d="M154.771,193.073c-7.285,0-12.706-7.868-8.268-13.848-4.189.734-7.61,1.913-9.755,3.91-6.516,6.065-.806,15.223,7.052,15.223h43.519a14.093,14.093,0,0,0,10.458-5.285Z" transform="translate(-11.864 -130.254)" fill="#ff8086"/>
      <path id="Path_113" data-name="Path 113" d="M208.989,124.264a2.285,2.285,0,0,1-.233-.01,2.647,2.647,0,0,1-2.407-2.867l.442-5.075a2.681,2.681,0,0,1,2.867-2.407,2.647,2.647,0,0,1,2.407,2.867l-.442,5.075A2.646,2.646,0,0,1,208.989,124.264Z" transform="translate(-64.305 -82.557)" fill="#b3e59f"/>
      <path id="Path_114" data-name="Path 114" d="M340,128.471a2.639,2.639,0,0,1-1.36-.377l-2.208-1.324a2.648,2.648,0,1,1,2.725-4.54l2.208,1.324A2.648,2.648,0,0,1,340,128.471Z" transform="translate(-157.823 -88.234)" fill="#fff"/>
      <path id="Path_115" data-name="Path 115" d="M187.589,226.081a2.647,2.647,0,0,1-2.487-1.743l-1.766-4.853a2.647,2.647,0,0,1,4.974-1.81l1.766,4.853a2.649,2.649,0,0,1-2.487,3.552Z" transform="translate(-47.687 -156.513)" fill="#a4ccff"/>
      <path id="Path_116" data-name="Path 116" d="M276.864,202.071a2.643,2.643,0,0,1-.675-.088l-4.194-1.1a2.646,2.646,0,1,1,1.344-5.119l4.194,1.1a2.647,2.647,0,0,1-.67,5.207Z" transform="translate(-110.241 -141.684)" fill="#b3e59f"/>
      <path id="Path_117" data-name="Path 117" d="M263.818,54.27a2.647,2.647,0,0,1-2.133-1.076L258.595,49a2.648,2.648,0,0,1,4.261-3.144l3.09,4.191a2.647,2.647,0,0,1-2.128,4.219Z" transform="translate(-101.595 -31.132)" fill="#a4ccff"/>
      <path id="Path_118" data-name="Path 118" d="M352.268,219.657a2.629,2.629,0,0,1-1.678-.6l-3.86-3.172a2.647,2.647,0,1,1,3.361-4.09l3.86,3.172a2.647,2.647,0,0,1-1.683,4.693Z" transform="translate(-165.201 -153.002)" fill="#ffe07d"/>
      <path id="Path_119" data-name="Path 119" d="M152.546,170.777a2.648,2.648,0,0,1-2.392-1.5l-2.179-4.553a2.648,2.648,0,1,1,4.778-2.286l2.179,4.553a2.647,2.647,0,0,1-2.386,3.79Z" transform="translate(-21.46 -116.632)" fill="#ffe07d"/>
    </g>
    <g id="popcorn" transform="translate(176.332 839.795) rotate(-14)" opacity="0.461">
      <path id="Path_161" data-name="Path 161" d="M153.553,33.7l.048-3.268a5.6,5.6,0,0,0-6.13-5.733h-.011a.407.407,0,0,1-.446-.386l-.082-1.774a5.6,5.6,0,0,0-5.974-5.325l-.9.062a.407.407,0,0,1-.43-.341l-.442-2.735a8.088,8.088,0,0,0-9.946-6.557l-.534.134a.476.476,0,0,1-.535-.236l-.067-.125a3.627,3.627,0,0,0-3.194-1.907h-.418a.476.476,0,0,1-.371-.177l-.561-.7a12.452,12.452,0,0,0-19.381,0l-.561.7a.476.476,0,0,1-.371.177h-.418a3.628,3.628,0,0,0-3.194,1.907l-.067.125a.476.476,0,0,1-.535.236L98.5,7.642A8.088,8.088,0,0,0,88.553,14.2l-.442,2.735a.407.407,0,0,1-.43.341l-.9-.062a5.6,5.6,0,0,0-5.974,5.325l-.082,1.774a.407.407,0,0,1-.446.386h-.011a5.6,5.6,0,0,0-6.13,5.733l.048,3.268,1.048,6.644h77.507Z" transform="translate(-15.054)" fill="#fddeb0"/>
      <g id="Group_65" data-name="Group 65" transform="translate(59.081 0.004)">
        <path id="Path_162" data-name="Path 162" d="M83.525,36.561l-.048-3.268a5.6,5.6,0,0,1,6.13-5.733.418.418,0,0,0,.457-.4l.082-1.763a5.6,5.6,0,0,1,5.974-5.325l.9.062a.407.407,0,0,0,.43-.341l.442-2.735a8.088,8.088,0,0,1,9.946-6.557l.4.1a.659.659,0,0,0,.74-.327,3.627,3.627,0,0,1,3.194-1.907h.418a.476.476,0,0,0,.371-.177l.561-.7A12.382,12.382,0,0,1,121.9,2.935a12.462,12.462,0,0,0-17.717,1.706l-.561.7a.476.476,0,0,1-.371.177h-.418a3.628,3.628,0,0,0-3.194,1.907l-.067.125a.476.476,0,0,1-.535.236L98.5,7.649a8.088,8.088,0,0,0-9.946,6.557l-.442,2.735a.407.407,0,0,1-.43.341l-.9-.062a5.6,5.6,0,0,0-5.974,5.325l-.082,1.773a.407.407,0,0,1-.446.387H80.27a5.6,5.6,0,0,0-6.13,5.733l.048,3.268,1.048,6.644h8.887Z" transform="translate(-74.138 -0.01)" fill="#fdd79b"/>
      </g>
      <g id="Group_74" data-name="Group 74" transform="translate(54.609 14.062)">
        <path id="Path_163" data-name="Path 163" d="M152.238,162.214H73.354v4.8l10.828,69.273a2.876,2.876,0,0,0,2.842,2.434h8.318l1.116-1.7,7.764-.592,3.184,2.292h11.721L121,236.941l9.55.329.645,1.448h8.318a2.876,2.876,0,0,0,2.842-2.434l10.828-69.273Z" transform="translate(-69.061 -139.125)" fill="#f37c7c"/>
        <path id="Path_164" data-name="Path 164" d="M153.18,167.011l-.943-4.8H84.513v2.923l-.462-2.923h-10.7v4.8l10.828,69.273a2.876,2.876,0,0,0,2.842,2.434h8.318l.726-2.016,10.356-.143.982,2.159h11.721l3.127-2.5,7.215.6,1.723,1.9h8.318a2.876,2.876,0,0,0,2.842-2.434l.583-3.729-36.215.024a13.5,13.5,0,0,1-13.346-11.394l-6.265-39.629a8.62,8.62,0,0,1,8.514-9.966h56.841Z" transform="translate(-69.061 -139.125)" fill="#ee6161"/>
        <path id="Path_165" data-name="Path 165" d="M140.7,157.431H57.159a2.55,2.55,0,0,1-2.55-2.55V152.34a2.55,2.55,0,0,1,2.55-2.55H140.7a2.55,2.55,0,0,1,2.55,2.55v2.541A2.55,2.55,0,0,1,140.7,157.431Z" transform="translate(-54.609 -129.546)" fill="#f9f7f8"/>
        <g id="XMLID_176_" transform="translate(19.284 27.886)">
          <g id="Group_70" data-name="Group 70">
            <g id="Group_69" data-name="Group 69">
              <path id="Path_166" data-name="Path 166" d="M155.585,183.158l2.29,71.708H145.81l-7-71.708Z" transform="translate(-138.814 -183.158)" fill="#f9f7f8"/>
              <g id="Group_67" data-name="Group 67">
                <g id="Group_66" data-name="Group 66">
                  <path id="Path_167" data-name="Path 167" d="M155.731,187.737l-.146-4.579H138.814l.74,7.582a8.58,8.58,0,0,1,6.538-3Z" transform="translate(-138.814 -183.158)" fill="#efedef"/>
                </g>
              </g>
              <path id="Path_168" data-name="Path 168" d="M292.285,183.158l-7,71.708H273.224l2.29-71.708Z" transform="translate(-242.442 -183.158)" fill="#f9f7f8"/>
              <g id="Group_68" data-name="Group 68" transform="translate(32.926)">
                <path id="Path_169" data-name="Path 169" d="M299.5,183.158H282.731l-.146,4.579h16.471Z" transform="translate(-282.585 -183.158)" fill="#efedef"/>
              </g>
            </g>
          </g>
        </g>
        <g id="Group_71" data-name="Group 71" transform="translate(38.327)">
          <path id="Path_170" data-name="Path 170" d="M227.841,66.763a7.152,7.152,0,0,1-5.474-2.541A1.718,1.718,0,0,1,224.992,62a3.73,3.73,0,0,0,5.7,0,1.718,1.718,0,0,1,2.624,2.217A7.152,7.152,0,0,1,227.841,66.763Z" transform="translate(-221.962 -61.396)" fill="#fdd79b"/>
        </g>
        <g id="Group_72" data-name="Group 72" transform="translate(23.422 9.012)">
          <path id="Path_171" data-name="Path 171" d="M158.6,106.113a1.718,1.718,0,0,1-1.311-2.826,7.166,7.166,0,0,1,10.947,0,1.718,1.718,0,0,1-2.624,2.217,3.73,3.73,0,0,0-5.7,0A1.713,1.713,0,0,1,158.6,106.113Z" transform="translate(-156.881 -100.746)" fill="#fdd79b"/>
        </g>
        <g id="Group_73" data-name="Group 73" transform="translate(53.461 9.012)">
          <path id="Path_172" data-name="Path 172" d="M298.085,106.113a1.714,1.714,0,0,1-1.313-.609,3.73,3.73,0,0,0-5.7,0,1.718,1.718,0,0,1-2.624-2.217,7.166,7.166,0,0,1,10.948,0,1.718,1.718,0,0,1-1.311,2.826Z" transform="translate(-288.043 -100.746)" fill="#fdd79b"/>
        </g>
      </g>
      <g id="Group_75" data-name="Group 75" transform="translate(79.364 98.016)">
        <path id="Path_173" data-name="Path 173" d="M162.7,427.978l1.526,15.64h12.065l-.2-6.139h-.49A13.5,13.5,0,0,1,162.7,427.978Z" transform="translate(-162.701 -427.978)" fill="#efedef"/>
        <path id="Path_174" data-name="Path 174" d="M273.42,469.4l-.2,6.148h12.065l.6-6.156Z" transform="translate(-247.912 -459.905)" fill="#efedef"/>
      </g>
    </g>
    <g id="cookie" transform="translate(1326.261 152.566)" opacity="0.497">
      <circle id="Ellipse_20" data-name="Ellipse 20" cx="38.5" cy="38.5" r="38.5" transform="translate(-0.261 -0.566)" fill="#d5a150"/>
      <path id="Path_144" data-name="Path 144" d="M109.314,55.557a38.261,38.261,0,0,1-53.758,53.758,38.261,38.261,0,1,0,53.758-53.758Z" transform="translate(-47.342 -47.343)" fill="#ad712c"/>
      <path id="Path_145" data-name="Path 145" d="M113.07,57.879a3.07,3.07,0,0,1-2.177-.9A8.468,8.468,0,0,1,122.868,45a3.08,3.08,0,0,1-4.355,4.355,2.309,2.309,0,0,0-3.266,3.266,3.079,3.079,0,0,1-2.178,5.257Z" transform="translate(-92.302 -36.255)" fill="#c98a2e"/>
      <circle id="Ellipse_21" data-name="Ellipse 21" cx="5.389" cy="5.389" r="5.389" transform="translate(19.189 9.346)" fill="#674230"/>
      <path id="Path_146" data-name="Path 146" d="M129.065,68.008c0,.021,0,.041-.006.062a3,3,0,0,0,3.106,3.221q.178-.007.358-.025a5.4,5.4,0,0,0,4.808-4.845c0-.021,0-.041.005-.062a3,3,0,0,0-3.106-3.221q-.178.007-.358.025A5.4,5.4,0,0,0,129.065,68.008Z" transform="translate(-109.851 -53.79)" fill="#7a5436"/>
      <path id="Path_147" data-name="Path 147" d="M30.656,222.708a3.07,3.07,0,0,1-2.177-.9A8.468,8.468,0,0,1,40.454,209.83a3.08,3.08,0,0,1-4.355,4.355,2.309,2.309,0,1,0-3.266,3.266,3.079,3.079,0,0,1-2.178,5.257Z" transform="translate(-22.205 -176.449)" fill="#c98a2e"/>
      <circle id="Ellipse_22" data-name="Ellipse 22" cx="5.389" cy="5.389" r="5.389" transform="translate(6.871 33.981)" fill="#674230"/>
      <path id="Path_148" data-name="Path 148" d="M46.65,232.837c0,.021,0,.041-.006.062a3,3,0,0,0,3.106,3.221q.178-.007.358-.025a5.4,5.4,0,0,0,4.808-4.845c0-.021,0-.041.005-.062a3,3,0,0,0-3.106-3.221q-.178.007-.358.025A5.4,5.4,0,0,0,46.65,232.837Z" transform="translate(-39.754 -193.983)" fill="#7a5436"/>
      <path id="Path_149" data-name="Path 149" d="M102.769,325.726a3.07,3.07,0,0,1-2.177-.9,8.469,8.469,0,0,1,11.976-11.976,3.08,3.08,0,0,1-4.355,4.355,2.309,2.309,0,0,0-3.266,3.266,3.079,3.079,0,0,1-2.178,5.257Z" transform="translate(-83.54 -264.069)" fill="#c98a2e"/>
      <circle id="Ellipse_23" data-name="Ellipse 23" cx="5.389" cy="5.389" r="5.389" transform="translate(17.649 49.378)" fill="#674230"/>
      <path id="Path_150" data-name="Path 150" d="M118.763,335.855c0,.021,0,.041-.006.062a3,3,0,0,0,3.106,3.221c.118,0,.238-.012.358-.025a5.4,5.4,0,0,0,4.808-4.846q0-.031.005-.062a3,3,0,0,0-3.106-3.221q-.178.007-.358.025A5.4,5.4,0,0,0,118.763,335.855Z" transform="translate(-101.089 -281.604)" fill="#7a5436"/>
      <path id="Path_151" data-name="Path 151" d="M216.089,397.839a3.07,3.07,0,0,1-2.177-.9,8.468,8.468,0,0,1,11.976-11.976,3.08,3.08,0,1,1-4.355,4.355,2.309,2.309,0,0,0-3.266,3.266,3.079,3.079,0,0,1-2.178,5.257Z" transform="translate(-179.923 -325.404)" fill="#c98a2e"/>
      <circle id="Ellipse_24" data-name="Ellipse 24" cx="5.389" cy="5.389" r="5.389" transform="translate(34.586 60.156)" fill="#674230"/>
      <path id="Path_152" data-name="Path 152" d="M232.083,407.967c0,.021,0,.041-.006.062a3,3,0,0,0,3.106,3.221q.178-.006.358-.024a5.4,5.4,0,0,0,4.808-4.846c0-.021,0-.041.005-.062a3,3,0,0,0-3.106-3.221q-.178.007-.358.024A5.4,5.4,0,0,0,232.083,407.967Z" transform="translate(-197.472 -342.938)" fill="#7a5436"/>
      <path id="Path_153" data-name="Path 153" d="M236.691,109.528a3.07,3.07,0,0,1-2.177-.9A8.468,8.468,0,0,1,246.49,96.649,3.08,3.08,0,0,1,242.135,101a2.309,2.309,0,0,0-3.266,3.266,3.079,3.079,0,0,1-2.178,5.257Z" transform="translate(-197.447 -80.184)" fill="#c98a2e"/>
      <circle id="Ellipse_25" data-name="Ellipse 25" cx="5.389" cy="5.389" r="5.389" transform="translate(37.666 17.064)" fill="#674230"/>
      <path id="Path_154" data-name="Path 154" d="M252.687,119.657l-.006.062a3,3,0,0,0,3.106,3.221q.178-.007.358-.025a5.4,5.4,0,0,0,4.808-4.846c0-.021,0-.041.005-.062a3,3,0,0,0-3.106-3.221q-.178.007-.358.025A5.4,5.4,0,0,0,252.687,119.657Z" transform="translate(-214.996 -97.719)" fill="#7a5436"/>
      <path id="Path_155" data-name="Path 155" d="M360.313,294.821a3.07,3.07,0,0,1-2.177-.9,8.468,8.468,0,0,1,11.976-11.976,3.08,3.08,0,0,1-4.355,4.355,2.309,2.309,0,1,0-3.266,3.266,3.079,3.079,0,0,1-2.178,5.257Z" transform="translate(-302.592 -237.783)" fill="#c98a2e"/>
      <circle id="Ellipse_26" data-name="Ellipse 26" cx="5.389" cy="5.389" r="5.389" transform="translate(56.142 44.759)" fill="#674230"/>
      <path id="Path_156" data-name="Path 156" d="M376.309,304.949c0,.021,0,.041-.005.062a3,3,0,0,0,3.106,3.221c.118,0,.238-.012.358-.025a5.4,5.4,0,0,0,4.808-4.845c0-.021,0-.041.005-.062a3,3,0,0,0-3.106-3.221q-.178.007-.358.025A5.4,5.4,0,0,0,376.309,304.949Z" transform="translate(-320.142 -255.318)" fill="#7a5436"/>
      <path id="Path_157" data-name="Path 157" d="M350.011,99.087a3.07,3.07,0,0,1-2.177-.9A8.468,8.468,0,0,1,359.81,86.208a3.08,3.08,0,0,1-4.355,4.355,2.309,2.309,0,0,0-3.266,3.266,3.079,3.079,0,0,1-2.178,5.257Z" transform="translate(-293.83 -71.304)" fill="#c98a2e"/>
      <circle id="Ellipse_27" data-name="Ellipse 27" cx="5.389" cy="5.389" r="5.389" transform="translate(54.602 15.504)" fill="#674230"/>
      <path id="Path_158" data-name="Path 158" d="M366.006,109.215c0,.021,0,.041-.005.062a3,3,0,0,0,3.106,3.221q.178-.007.358-.025a5.4,5.4,0,0,0,4.808-4.846c0-.021,0-.041.005-.062a3,3,0,0,0-3.106-3.221c-.118,0-.238.012-.358.025A5.4,5.4,0,0,0,366.006,109.215Z" transform="translate(-311.38 -88.838)" fill="#7a5436"/>
      <path id="Path_159" data-name="Path 159" d="M195.485,222.708a3.07,3.07,0,0,1-2.177-.9,8.468,8.468,0,0,1,11.976-11.976,3.08,3.08,0,0,1-4.355,4.355,2.309,2.309,0,1,0-3.266,3.266,3.079,3.079,0,0,1-2.178,5.257Z" transform="translate(-162.399 -176.448)" fill="#c98a2e"/>
      <circle id="Ellipse_28" data-name="Ellipse 28" cx="5.389" cy="5.389" r="5.389" transform="translate(31.507 33.981)" fill="#674230"/>
      <path id="Path_160" data-name="Path 160" d="M211.479,232.837c0,.021,0,.041-.006.062a3,3,0,0,0,3.106,3.221q.178-.007.358-.025a5.4,5.4,0,0,0,4.808-4.845c0-.021,0-.041.005-.062a3,3,0,0,0-3.106-3.221q-.178.007-.358.025A5.4,5.4,0,0,0,211.479,232.837Z" transform="translate(-179.947 -193.983)" fill="#7a5436"/>
      <g id="Group_64" data-name="Group 64" transform="translate(5.068 3.529)">
        <circle id="Ellipse_29" data-name="Ellipse 29" cx="1.155" cy="1.155" r="1.155" transform="translate(13.088 39.263)" fill="#ad712c"/>
        <circle id="Ellipse_30" data-name="Ellipse 30" cx="1.155" cy="1.155" r="1.155" transform="translate(20.786 39.263)" fill="#ad712c"/>
        <circle id="Ellipse_31" data-name="Ellipse 31" cx="1.155" cy="1.155" r="1.155" transform="translate(16.937 32.334)" fill="#ad712c"/>
        <circle id="Ellipse_32" data-name="Ellipse 32" cx="1.155" cy="1.155" r="1.155" transform="translate(3.079 46.191)" fill="#ad712c"/>
        <circle id="Ellipse_33" data-name="Ellipse 33" cx="1.155" cy="1.155" r="1.155" transform="translate(18.477 63.128)" fill="#ad712c"/>
        <circle id="Ellipse_34" data-name="Ellipse 34" cx="1.155" cy="1.155" r="1.155" transform="translate(23.096 56.969)" fill="#ad712c"/>
        <circle id="Ellipse_35" data-name="Ellipse 35" cx="1.155" cy="1.155" r="1.155" transform="translate(30.794 47.731)" fill="#ad712c"/>
        <circle id="Ellipse_36" data-name="Ellipse 36" cx="1.155" cy="1.155" r="1.155" transform="translate(43.112 43.112)" fill="#ad712c"/>
        <circle id="Ellipse_37" data-name="Ellipse 37" cx="1.155" cy="1.155" r="1.155" transform="translate(40.033 46.191)" fill="#ad712c"/>
        <circle id="Ellipse_38" data-name="Ellipse 38" cx="1.155" cy="1.155" r="1.155" transform="translate(44.652 50.81)" fill="#ad712c"/>
        <circle id="Ellipse_39" data-name="Ellipse 39" cx="1.155" cy="1.155" r="1.155" transform="translate(44.652 60.049)" fill="#ad712c"/>
        <circle id="Ellipse_40" data-name="Ellipse 40" cx="1.155" cy="1.155" r="1.155" transform="translate(61.589 27.715)" fill="#ad712c"/>
        <circle id="Ellipse_41" data-name="Ellipse 41" cx="1.155" cy="1.155" r="1.155" transform="translate(56.969 58.509)" fill="#ad712c"/>
        <circle id="Ellipse_42" data-name="Ellipse 42" cx="1.155" cy="1.155" r="1.155" transform="translate(33.874)" fill="#ad712c"/>
        <circle id="Ellipse_43" data-name="Ellipse 43" cx="1.155" cy="1.155" r="1.155" transform="translate(6.159 13.857)" fill="#ad712c"/>
        <circle id="Ellipse_44" data-name="Ellipse 44" cx="1.155" cy="1.155" r="1.155" transform="translate(0 23.096)" fill="#ad712c"/>
        <circle id="Ellipse_45" data-name="Ellipse 45" cx="1.155" cy="1.155" r="1.155" transform="translate(17.707 25.405)" fill="#ad712c"/>
        <circle id="Ellipse_46" data-name="Ellipse 46" cx="1.155" cy="1.155" r="1.155" transform="translate(22.326 23.096)" fill="#ad712c"/>
        <circle id="Ellipse_47" data-name="Ellipse 47" cx="1.155" cy="1.155" r="1.155" transform="translate(17.707 20.786)" fill="#ad712c"/>
        <circle id="Ellipse_48" data-name="Ellipse 48" cx="1.155" cy="1.155" r="1.155" transform="translate(39.263 32.334)" fill="#ad712c"/>
        <circle id="Ellipse_49" data-name="Ellipse 49" cx="1.155" cy="1.155" r="1.155" transform="translate(29.255 9.238)" fill="#ad712c"/>
        <circle id="Ellipse_50" data-name="Ellipse 50" cx="1.155" cy="1.155" r="1.155" transform="translate(43.882 23.096)" fill="#ad712c"/>
        <circle id="Ellipse_51" data-name="Ellipse 51" cx="1.155" cy="1.155" r="1.155" transform="translate(46.191 30.024)" fill="#ad712c"/>
        <circle id="Ellipse_52" data-name="Ellipse 52" cx="1.155" cy="1.155" r="1.155" transform="translate(50.811 30.024)" fill="#ad712c"/>
        <circle id="Ellipse_53" data-name="Ellipse 53" cx="1.155" cy="1.155" r="1.155" transform="translate(50.811 34.643)" fill="#ad712c"/>
        <circle id="Ellipse_54" data-name="Ellipse 54" cx="1.155" cy="1.155" r="1.155" transform="translate(42.342 6.929)" fill="#ad712c"/>
        <circle id="Ellipse_55" data-name="Ellipse 55" cx="1.155" cy="1.155" r="1.155" transform="translate(46.961 4.619)" fill="#ad712c"/>
      </g>
    </g>
    <g id="cola" transform="matrix(0.966, -0.259, 0.259, 0.966, 327.539, 253.607)" opacity="0.51">
      <path id="Path_133" data-name="Path 133" d="M0,96H45.552v56.94H0Zm0,0" transform="translate(0 -78.918)" fill="#e9686a"/>
      <path id="Path_134" data-name="Path 134" d="M42.705,424.541H2.847L0,416H45.552Zm0,0" transform="translate(0 -341.978)" fill="#dd3e46"/>
      <path id="Path_135" data-name="Path 135" d="M45.552,43.388H0L2.847,32H42.705Zm0,0" transform="translate(0 -26.306)" fill="#dd3e46"/>
      <path id="Path_136" data-name="Path 136" d="M16,0H55.858V5.694H16Zm0,0" transform="translate(-13.153)" fill="#cfdfe8"/>
      <path id="Path_137" data-name="Path 137" d="M0,249.965A81.428,81.428,0,0,0,45.552,240v5.694S29.894,262.776,0,262.776Zm0,0" transform="translate(0 -197.295)" fill="#5a6470"/>
      <g id="Group_63" data-name="Group 63" transform="translate(4.271 21.353)">
        <path id="Path_138" data-name="Path 138" d="M29.694,179.388H25.424A1.424,1.424,0,0,1,24,177.965v-8.541A1.424,1.424,0,0,1,25.424,168h4.271v2.847H26.847v5.694h2.847Zm0,0" transform="translate(-24 -159.459)" fill="#fff"/>
        <path id="Path_139" data-name="Path 139" d="M79.118,179.388H73.424A1.424,1.424,0,0,1,72,177.965v-8.541A1.424,1.424,0,0,1,73.424,168h5.694a1.424,1.424,0,0,1,1.424,1.424v8.541A1.424,1.424,0,0,1,79.118,179.388Zm-4.271-2.847h2.847v-5.694H74.847Zm0,0" transform="translate(-63.459 -159.459)" fill="#fff"/>
        <path id="Path_140" data-name="Path 140" d="M141.694,179.388h-4.271A1.424,1.424,0,0,1,136,177.965V168h2.847v8.541h2.847Zm0,0" transform="translate(-116.071 -159.459)" fill="#fff"/>
        <path id="Path_141" data-name="Path 141" d="M191.118,168h-5.694A1.424,1.424,0,0,0,184,169.424v9.965h2.847v-2.847h2.847v2.847h2.847v-9.965A1.424,1.424,0,0,0,191.118,168Zm-4.271,5.694v-2.847h2.847v2.847Zm0,0" transform="translate(-155.53 -159.459)" fill="#fff"/>
        <path id="Path_142" data-name="Path 142" d="M128,120h2.847v2.847H128Zm0,0" transform="translate(-109.494 -120)" fill="#fff"/>
        <path id="Path_143" data-name="Path 143" d="M172.812,125.694h-2.847v-2.847H160V120h11.388a1.424,1.424,0,0,1,1.424,1.424Zm0,0" transform="translate(-135.8 -120)" fill="#fff"/>
      </g>
    </g>
    <g id="groceries" transform="matrix(0.966, -0.259, 0.259, 0.966, 1537.11, 394.396)" opacity="0.413">
      <path id="Path_85" data-name="Path 85" d="M18.406,26.553a2.448,2.448,0,0,1-2.087-1.166c-1.5-2.437-4.313-5.256-7.539-5.153a2.515,2.515,0,0,1-2.523-2.373,2.45,2.45,0,0,1,2.373-2.525c5.161-.154,9.562,3.757,11.857,7.483a2.449,2.449,0,0,1-2.082,3.735Z" transform="translate(0.502 22.22)" fill="#436b1c"/>
      <g id="Group_57" data-name="Group 57" transform="translate(20.547 1.057)">
        <path id="Path_86" data-name="Path 86" d="M60.377,15.533A9.174,9.174,0,0,0,51.229,6.99l-.042,0a5.679,5.679,0,0,0-.2-2.283A5.976,5.976,0,0,0,46.048.475a5.889,5.889,0,0,0-4.867,1.663,6.531,6.531,0,0,0-10.934,4.85c0,.012,0,.022,0,.034A8.488,8.488,0,0,0,22.621,17.5a9.815,9.815,0,0,0-8.1,14.732,7.18,7.18,0,0,0-.392,10.777C20.04,38.184,26.246,54.33,33.555,67.22,35.982,71.5,62.206,66.941,64.3,69.6c2.381-2.141,3.919-39.418,3.985-42.693A11.809,11.809,0,0,0,60.377,15.533Z" transform="translate(-11.886 -0.431)" fill="#88c057"/>
      </g>
      <path id="Path_87" data-name="Path 87" d="M37.633,64.987l1.746-1.046a10.2,10.2,0,0,1,10.5,0l1.746,1.046a10.2,10.2,0,0,0,10.5,0l4.935-2.195c.725-2.023,1.23-3.488,1.43-4.137A170.825,170.825,0,0,0,76.466,12.7C76.627,6.44,71.455-3.315,62.86,1.118,54.413,5.473,48.363,22.174,44.111,30.1A172.772,172.772,0,0,0,29.893,66.119,10.189,10.189,0,0,0,37.633,64.987Z" transform="translate(34.758 0)" fill="#eeaf4b"/>
      <path id="Path_88" data-name="Path 88" d="M8.7,38.616,12,40.593a11.949,11.949,0,0,0,12.3,0l.847-.509a10.2,10.2,0,0,1,10.5,0l1.746,1.046a10.185,10.185,0,0,0,6.2,1.391c1.568-5.063,1.041-11.392-1.389-15.675C34.027,12.431,27.23,15.368,20.691,21.626a10.713,10.713,0,0,1-4.458,2.557c-7.171,2.05-12.464,5.4-9.454,14.534A1.725,1.725,0,0,1,8.7,38.616Z" transform="translate(0.011 23.856)" fill="#ed3f32"/>
      <path id="Path_89" data-name="Path 89" d="M37.041,32.26a2.448,2.448,0,0,1-2.317-3.238A9.237,9.237,0,0,1,46.4,23.261a4.311,4.311,0,0,0,5.467-2.694,2.449,2.449,0,1,1,4.639,1.575A9.221,9.221,0,0,1,44.829,27.9,4.319,4.319,0,0,0,39.363,30.6,2.454,2.454,0,0,1,37.041,32.26Z" transform="translate(41.568 27.395)" fill="#a46f3e"/>
      <path id="Path_90" data-name="Path 90" d="M39.406,25.295a2.448,2.448,0,0,1-2.317-3.238A9.205,9.205,0,0,1,48.767,16.3a4.307,4.307,0,0,0,5.467-2.7,2.448,2.448,0,1,1,4.636,1.575,9.224,9.224,0,0,1-11.678,5.763,4.305,4.305,0,0,0-5.467,2.694A2.448,2.448,0,0,1,39.406,25.295Z" transform="translate(44.996 17.297)" fill="#a46f3e"/>
      <path id="Path_91" data-name="Path 91" d="M41.773,17.488a2.474,2.474,0,0,1-.789-.13,2.45,2.45,0,0,1-1.531-3.108A8.1,8.1,0,0,1,49.7,9.2a3.176,3.176,0,0,0,4.039-1.986,2.449,2.449,0,1,1,4.639,1.575,8.077,8.077,0,0,1-10.253,5.053,3.184,3.184,0,0,0-4.036,1.991A2.453,2.453,0,0,1,41.773,17.488Z" transform="translate(48.423 8.037)" fill="#a46f3e"/>
      <g id="Group_58" data-name="Group 58" transform="translate(43.801 19.6)">
        <path id="Path_92" data-name="Path 92" d="M26.254,22.926c-2.315,3.079-5.966,6.723-4.561,13.16l3.782,17.3h0l1.746-1.046a10.2,10.2,0,0,1,10.5,0l1.746,1.046a9.984,9.984,0,0,0,2.76,1.134,176.482,176.482,0,0,1,9.924-27.38c-1.9-4.742-5.944-6.329-8.883-7.953l-.049-.027a3.416,3.416,0,0,1-.576-5.232,2.772,2.772,0,0,0,.615-2.4l-.3-1.352a2.777,2.777,0,0,0-3.3-2.114L24.784,11.314a2.777,2.777,0,0,0-2.114,3.3l.3,1.352a2.749,2.749,0,0,0,1.607,1.94c1.81.781,2.915,2.8,1.989,4.543A3.79,3.79,0,0,1,26.254,22.926Z" transform="translate(-21.38 -8.002)" fill="#dae7ef"/>
      </g>
      <path id="Path_93" data-name="Path 93" d="M42.345,15.6,25.5,19.285a3.474,3.474,0,0,1-4.122-2.643l-.242-1.107a3.474,3.474,0,0,1,2.643-4.122L40.623,7.732a3.474,3.474,0,0,1,4.122,2.643l.242,1.107A3.473,3.473,0,0,1,42.345,15.6Z" transform="translate(21.945 11.092)" fill="#fff"/>
      <path id="Path_94" data-name="Path 94" d="M106.1,25.813l-4.274,61.3A11.509,11.509,0,0,1,90.331,98.037H21.578A11.509,11.509,0,0,1,10.084,87.116L5.912,27.824A1.743,1.743,0,0,1,8.55,26.239l3.294,1.977a11.949,11.949,0,0,0,12.3,0l.847-.509a10.2,10.2,0,0,1,10.5,0l1.746,1.048a10.2,10.2,0,0,0,10.5,0l1.746-1.048a10.2,10.2,0,0,1,10.5,0l1.746,1.048a10.2,10.2,0,0,0,10.5,0l1.746-1.048a10.2,10.2,0,0,1,10.5,0l1.746,1.048a10.2,10.2,0,0,0,10.5,0l8.3-3.686A.772.772,0,0,1,106.1,25.813Z" transform="translate(0 36.233)" fill="#fbd490"/>
      <path id="Path_95" data-name="Path 95" d="M29.5,44.9H12.359a2.449,2.449,0,1,1,0-4.9H29.5a2.449,2.449,0,1,1,0,4.9Z" transform="translate(5.797 57.972)" fill="#e0b877"/>
      <path id="Path_96" data-name="Path 96" d="M34.4,48.9H12.359a2.449,2.449,0,1,1,0-4.9H34.4a2.449,2.449,0,0,1,0,4.9Z" transform="translate(5.797 63.769)" fill="#e0b877"/>
      <path id="Path_97" data-name="Path 97" d="M39.3,52.9H12.359a2.449,2.449,0,1,1,0-4.9H39.3a2.449,2.449,0,0,1,0,4.9Z" transform="translate(5.797 69.566)" fill="#e0b877"/>
      <path id="Path_98" data-name="Path 98" d="M32.258,52.9h-4.9a2.449,2.449,0,1,1,0-4.9h4.9a2.449,2.449,0,1,1,0,4.9Z" transform="translate(27.536 69.566)" fill="#e0b877"/>
    </g>
  </g>
</svg>
