<svg xmlns="http://www.w3.org/2000/svg" width="662" height="533" viewBox="0 0 662 533">
  <g id="Group_125" data-name="Group 125" transform="translate(-8235 9753)">
    <g id="Component_1_1" data-name="Component 1 – 1" transform="translate(8235 -9753)">
      <rect id="Rectangle_228" data-name="Rectangle 228" width="662" height="533" fill="none"/>
      <g id="python" transform="translate(110.546 46.205)">
        <path id="Path_226" data-name="Path 226" d="M180.208,89.368v20.725a19.848,19.848,0,0,1-19.85,19.848H98.435a5.985,5.985,0,0,0-5.973,6.273A6.1,6.1,0,0,0,98.6,141.9H113.25a5.98,5.98,0,0,1,5.98,5.98V162.82a19.975,19.975,0,0,1-19.974,19.975H81.883A19.975,19.975,0,0,1,61.906,162.82V110.175H19.85A19.849,19.849,0,0,1,0,90.325V72.7a19.849,19.849,0,0,1,19.85-19.85H61.906v0H80.031A5.982,5.982,0,0,0,86,46.584a6.1,6.1,0,0,0-6.143-5.7H67.886a5.98,5.98,0,0,1-5.98-5.977V19.975A19.975,19.975,0,0,1,81.883,0H99.256A19.973,19.973,0,0,1,119.23,19.919v49.6h41.129A19.852,19.852,0,0,1,180.208,89.368Zm0,0" fill="#ffda44"/>
        <path id="Path_227" data-name="Path 227" d="M343.319,89.368v20.725a19.848,19.848,0,0,1-19.85,19.848H261.545a5.985,5.985,0,0,0-5.973,6.273,6.1,6.1,0,0,0,6.143,5.682H276.36a5.98,5.98,0,0,1,5.98,5.98V162.82a19.975,19.975,0,0,1-19.974,19.975H253.68V0h8.687A19.973,19.973,0,0,1,282.34,19.919v49.6h41.129A19.852,19.852,0,0,1,343.319,89.368Zm0,0" transform="translate(-163.111)" fill="#ffcd00"/>
        <path id="Path_228" data-name="Path 228" d="M296.734,426.4a5.977,5.977,0,1,1-5.976-5.976A5.976,5.976,0,0,1,296.734,426.4Zm0,0" transform="translate(-183.108 -270.325)" fill="#4895ff"/>
        <path id="Path_229" data-name="Path 229" d="M307.5,426.4a5.976,5.976,0,0,1-5.976,5.977V420.426A5.975,5.975,0,0,1,307.5,426.4Zm0,0" transform="translate(-193.873 -270.325)" fill="#2682ff"/>
        <path id="Path_230" data-name="Path 230" d="M119.23,19.919V77.714a11.954,11.954,0,0,1-11.957,11.957H67.886a5.983,5.983,0,0,0-5.98,5.977v14.526H19.85A19.851,19.851,0,0,1,0,90.325V72.7a19.851,19.851,0,0,1,19.85-19.85H61.906v0H80.031A5.982,5.982,0,0,0,86,46.584a6.1,6.1,0,0,0-6.143-5.7H67.886a5.98,5.98,0,0,1-5.98-5.977V19.975A19.975,19.975,0,0,1,81.883,0H99.256A19.973,19.973,0,0,1,119.23,19.919Zm0,0" fill="#4895ff"/>
        <path id="Path_231" data-name="Path 231" d="M282.34,19.919V77.714a11.954,11.954,0,0,1-11.957,11.957h-16.7V0h8.687A19.973,19.973,0,0,1,282.34,19.919Zm0,0" transform="translate(-163.111)" fill="#2682ff"/>
        <path id="Path_232" data-name="Path 232" d="M204.9,67.923a5.979,5.979,0,1,1-5.977-5.982A5.977,5.977,0,0,1,204.9,67.923Zm0,0" transform="translate(-124.057 -39.827)" fill="#ffda44"/>
        <path id="Path_233" data-name="Path 233" d="M215.669,67.923a5.977,5.977,0,0,1-5.977,5.976V61.941A5.981,5.981,0,0,1,215.669,67.923Zm0,0" transform="translate(-134.827 -39.827)" fill="#ffcd00"/>
      </g>
      <g id="javascript" transform="translate(382.875 153.875)">
        <path id="Path_234" data-name="Path 234" d="M168.125,84.063a83.637,83.637,0,1,1-5.9-31.011A83.812,83.812,0,0,1,168.125,84.063Z" fill="#e4ba42"/>
        <g id="Group_124" data-name="Group 124" transform="translate(24.289 14.847)">
          <path id="Path_235" data-name="Path 235" d="M327.865,197.431c-2.34-6.785-11.933-6.785-13.8-1.17s4.446,8.891,14.273,12.167,15.911,11.933,14.741,19.654-4.446,17.782-23.866,17.782c-12.138,0-18.883-7.586-22.235-13.276l11-6.613s3.744,7.955,10.763,7.955,9.827-2.34,9.827-7.721c0-6.551-22.7-8.891-26.206-20.122s1.17-27.142,17.548-25.972c10.237.731,15.995,5.758,18.874,9.425Z" transform="translate(-223.745 -135.777)" fill="#f2f2f2"/>
          <path id="Path_236" data-name="Path 236" d="M180.679,183.8v44.924c0,5.381-4.68,8.19-9.359,7.253s-6.785-6.551-6.785-6.551l-10.763,7.253s2.34,10.763,17.08,11.7,23.164-7.955,23.164-15.443V183.8Z" transform="translate(-127.566 -138.296)" fill="#f2f2f2"/>
          <path id="Path_237" data-name="Path 237" d="M73.968,45.213v128.32a84.1,84.1,0,0,0,11.34,9.611h96.868a84.278,84.278,0,0,0,9.206-7.528H81.5V52.741H204.368V160.035a83.606,83.606,0,0,0,7.531-14.6V45.213Z" transform="translate(-73.968 -45.213)" fill="#f2f2f2"/>
        </g>
        <circle id="Ellipse_63" data-name="Ellipse 63" cx="13.337" cy="13.337" r="13.337" transform="translate(15.512 98.027)" fill="#3f4a43"/>
      </g>
      <g id="flask" transform="translate(200.25 296.403)">
        <path id="Path_238" data-name="Path 238" d="M43.854,116.57c-5.589-4.4-11.553-8.61-15.627-14.547A118.045,118.045,0,0,1,8.536,66.7C5.807,58.413,4.873,49.533,1.353,41.571c-3.677-5.785.633-12.1,6.969-13.941,2.819-.543,7.778-3.2,1.791-1.3-5.368,3.936-5.885-3.577-.382-4.053,3.756-.5,5.139-3.571,3.853-6.338-4.033-2.631,9.777-5.518,2.827-9.443-7.234-7.808,10.123-9.311,5.84-.442C21.228,12.873,34.385,4.8,31.33,12.677c3.1,3.783,11.621.863,11.407,6.166,4.521.311,6.072,4.112,10.311,4.4,4.4,1.987,12.371,3.55,13.866,8.505-4.362,3.453-14.461-7.133-14.949,2.426,1.32,14.124.983,28.672,6.149,42.121,2.443,8.142,8.369,14.552,13.718,20.895,5.121,6.211,12.055,10.585,19.125,14.266a78.9,78.9,0,0,0,19.642,6.08c2.74-2.1,7.579-9.888,11.852-6.6.206,3.7-8.482,7.722-.408,7.313,4.745-1.432,8.033,3.665,11.938-.934,3.6,4.263,14.956-2.721,12.4,5.99-3.464,2.234-8.513.885-11.98,3.959-5.716-2.856-10.268,2.553-16.6,1.871a121.907,121.907,0,0,1-21.306,1.776c-11.692-.922-23.63-1.312-34.752-5.383-6.267-1.821-12.381-5.39-17.888-8.959Zm9.874,4.281c6.118,2.643,12.1,5.431,18.806,6.275,10.638,1.477,21.624,3.756,32.3,1.68-4.831-2.181-9.828.847-14.641-1.559-5.773,1.241-11.968-.319-17.839-1.087-6.673-2.972-13.876-5.015-20.125-8.877-7.812-2.852,4.037,3.659,6.147,4.188,4.881,2.769-5.368-1.422-6.816-2.572-4.088-2.294-4.609-1.814-.4.514.847.5,1.683,1.016,2.571,1.439Zm-11.643-8.228c5.93,2.2-.026-4.169-2.74-3.8-1.2-2.088-4.6-3.408-2.2-4.529-4.307,1.5-4.513-5.687-6.537-4.659C26.045,98.2,28.83,93.1,23.4,89.964,22.9,86.665,18,83.8,16.445,78.83c-.69-2.549-5.536-9.861-2.56-3.055,2.534,6.552,6.991,12.168,10.7,17.772,2.879,5.337,6.283,10.919,11.527,14.248,1.77,1.7,3.474,4.3,5.97,4.828ZM25.007,93.869C25.212,92.973,26.09,95.807,25.007,93.869Zm24.181,21.385C50.5,114.666,47.3,114.512,49.188,115.254Zm3.216,1.174C52.071,114.808,50.935,117.335,52.4,116.428Zm4.03,1.68C58.349,116.281,53.476,116.955,56.434,118.108Zm6.9,3.848C64.5,120.235,59.608,121.308,63.339,121.956Zm-13.258-9.242C53.056,110.786,46.231,112.686,50.081,112.713ZM53.1,114.22C53.015,113.2,52.026,114.677,53.1,114.22Zm15.1,9.427c2.429,1.533,14.181,3.359,6.823.629C73.792,124.535,61.382,120.764,68.2,123.647ZM44.229,104.972C43.993,103.954,40.457,103.844,44.229,104.972Zm7.028,4.1C53.09,107.8,47.46,108.088,51.257,109.074Zm5.915,3.625C59.8,111.709,52.914,111.705,57.172,112.7ZM41.365,101.857c2.849,2.185,11.493.281,4.363-1.3-3.242-1.728-10.552-2.912-5.569,1.042ZM61.18,113.95C62.368,111.929,56.2,112.795,61.18,113.95Zm-6.021-4.784c6.965,1.969-5.859-4.408-1.72-.727l.919.416Zm12.071,6.976C73.827,116.206,61.27,115.232,67.23,116.142Zm-28.4-18.1C38.569,96.812,37.2,98.143,38.828,98.041ZM78.389,122.4C78.565,120.184,76.237,124.056,78.389,122.4Zm-28.3-17.468C49.687,103.765,48.027,104.886,50.088,104.934ZM39.453,97.269C43.24,97.041,34.265,95.6,39.453,97.269Zm-12.6-8.142C26.383,87.31,22.735,85.863,26.855,89.127Zm33.073,20.989C59.234,109.324,59.6,110.287,59.928,110.115ZM80.51,122.748C80.447,121.537,79.389,123.2,80.51,122.748Zm-22.4-14.514C58.477,106.674,54.875,107.761,58.106,108.233Zm-15.335-9.72C45.59,98.213,38.254,96.609,42.771,98.514Zm25.94,16.119C73.1,112.893,64.43,113.785,68.711,114.633ZM55.22,105.475c5.06.651-6.024-3.445-1.113-.368Zm17.587,10.814c4.728-2.822,3.168,6.616,8.019.8,4.783-3.493-4.131,4.318,1.762.623,4.265-2.853,10.563,1.353,14.54,2.721,2.859-.139,5.641,2.474,8.576.884,5.645-1.522-11.042-2.256-6.669-4.952-5.165,1.5-8.98-1.791-11.522-5.1-5.8-1.339-12.494-4.3-15.388-9.431-1.181-1.923,1.7.274-1.019-2.875-3.49-3.1-5.233-6.632-7.576-10.406-2.8-1.492-3.13-5.889-3.411-.146.023-3.625-3.381-6.065-4.213-5.053-.015-3.49,3.644-1.74,1.083-4.322-.55-3.618-2.365-7.388-2.909-11.474-.846-1.968-.12-6.185-2.893-1.728-1.009,4.712-.334-5.787,1.237-2.327,2.061-3.531-.743-3.116-.855-2.628,1.343-2.98.851-7.209-.352-5.6.716-3.16,1.132-11.628-1.068-10.125,1.334-3.306,2.53-15.122-3.266-10.615a24.6,24.6,0,0,0-8.332,1.807c6.024,3.321-.608,1.2-3.063.671-.319,3.074-2.748,1.747-5.784,1.776,4.851.6-2.362,4.959-5.139,3.265-3.614,1.724,3.115,6.035.071,7.369.375,2.006-5.533-.726-5.071,3.914-3.505-1.478-.48,5.5,1.274,3.141,5.964,1.615,4.2,5.293,4.348,8.79-.971,2.035-4.8-4.787-.851-4.471-3.115-5.058-3.444-1.83-6.031.521-.6.169,6.6,3.343,2.081,4.91,3.973.615,4.09,4.094,4.9,6.294,2.388,2.488,1.9-2.749,4.757.244C28.23,70.1,20.46,65.256,26.717,66.81c-.034-2.68-1.133-4.844.786-4.792,1.9-3.437-1.99,8.479,2.291,4.109,1.184-.517,1.481-3.441,3.61.277,3.092,3.044,1.117,5.247-3.246,2.459.78,2.65,5.836,3.594,4.884,7.737,1.008,3.644,2.418,2.3,3.647,2.091.963,3.539,1.512.937,1.556-.75,4.412.946,3.377,3.554,4.76,5.376,3.04,1.371-4.351-9.3.867-3.209,5.491,4.959,2.061,7.028-2.867,6.234,3.118-.252,4.122,4.217,8.025,4.06C54.586,92.1,57,98.6,50.864,95.889c-2.126-1.919-9.657-4.284-3.5-.637,5.675,2.631,10.188,4.2,15.664,7.5,3.918,2.8,5.611,6,7.1,6.635-3.294,1.574-9.925-1.256-5-2.122-3.074-.559-6.529-2.114-3.587,1.713,2.5,2.092,8.865,1.87,10.009,2.106-.967,2.13-2.627,2.3.037,2.463-2.973,1.586.956,1.833,1.23,2.736Zm-6.08-17.171c-1.81-1.893-2.279-5.435-.322-2.355C67.41,97.168,69.618,102.555,66.727,99.117Zm19.8,12.58C87.659,111.622,86.564,112.555,86.531,111.7ZM63.872,94.477C63.8,91.616,64.523,96.684,63.872,94.477ZM61.9,91.83C59.625,87.433,64.771,93.075,61.9,91.83ZM38.048,75.367C39.386,75.01,38.708,77.653,38.048,75.367ZM57.034,85.656C57.855,82.571,58,88.243,57.034,85.656ZM43.622,76.33C42.678,74.628,45.6,77.927,43.622,76.33ZM55.13,80.019c-2.155-4.828,1.529-2.639.48.791ZM35.282,66.782c-.963-1.585-2.557-6.233-2.043-7.653.461,2.312,4.914,9.948,2.181,3.164-3.017-5.687,3.61,1.844,4.292,3.265.319,1.41-1.863-.386-.386,2.924C36.631,64.714,37.736,70.562,35.282,66.782Zm-6.133-4.228C29.4,58.87,30.551,65.081,29.149,62.555Zm2.759.952C33.224,60.726,34.138,67.383,31.908,63.506ZM25.27,58.372c-2.283-2.272-3.936-4.364.108-1.41,1.556.06-3.463-4.756.375-1.529,4.033.735,1.99,6.617-.484,2.94Zm3.486-.09C30.083,56.966,29.461,59.575,28.755,58.282Zm2.148.686C28.89,55.2,33.344,60.549,30.9,58.967Zm-4.265-4.074c-6.638-5.912,8.34,3.088,1.083,1.094Zm19.023,11.05c-2.875-1.721-.765-12.126.218-5.011,2.793-.9-.155,3.677,1.926,3.632C47.479,67.453,46.546,68.493,45.661,65.943ZM52.7,70.1C52.978,66.967,53.289,72.249,52.7,70.1Zm-1.222-1.211C51.79,67.555,51.505,70.471,51.475,68.893ZM27.938,52.951c-4.265-5.885,12.4,5.952,2.733,1.492C29.662,54.177,28.445,54.083,27.938,52.951Zm13.551,7.183C41.085,55.178,42.389,60.954,41.489,60.134Zm10.286,6.6C52.569,63.912,51.835,68.6,51.775,66.734ZM28.594,50.706c2.534-.543,10.5,4.45,3.186,1.425-.813-.9-2.549-.491-3.186-1.425ZM50.361,61.554c.271-5.067,1.516-3.025.011.727l-.011-.728ZM30.48,48.941c1.034-1.515-2.745-6.849.543-1.912,1.422,1.128,4.112,1.889,1.736,2.365C36.5,52.689,31.848,50.286,30.48,48.941ZM49.285,59.972C50,54.2,49.916,63.353,49.285,59.972ZM28.32,43.61C29.111,43.272,28.74,44.663,28.32,43.61Zm4.907,2.92C34.49,43.88,35.555,49.484,33.227,46.53Zm13.835,7.7C47.051,53.21,47.324,55.706,47.063,54.225Zm-.8-1.772C44.341,47.715,48.049,54.96,46.26,52.453Zm-1.177-3.108C44.762,47.388,46.177,51.8,45.083,49.345ZM47,46.226c-1.319-2.321,1.665-10.234,2-5.327-1.391,3.824-.4,5.961.565.832C51.358,37.7,49.18,49.7,47,46.226ZM48.974,34.46C49.548,33.755,49.1,35.31,48.974,34.46Zm-3.294,64.9C44.9,98.675,45.78,99.788,45.68,99.357Zm6.784,3.43c3.774.971,3.756-.585.344-1.05-1.833-1.7-7.624-3.516-2.44-.21C50.71,102.4,51.793,102.374,52.464,102.787Zm-13.4-8.9c2.076,1.553,7.83,4.393,2.961.593,1.642-1.909-3.141-2.924-1.555-4.2-4.037-2.471-3.187-2.25-.356-2.171-4.851-2.171.7-2.006.439-3.118-1.87-.368-9.293-3.3-4.926.24-4.438-2.261-1.058.843-2.4.517-4.54-1.237,4.041,3.457-.72,2.291,2.6,2.061,7.006,5.285,1.1,2.181-.776,1.121,4.229,2.819,5.458,3.669Zm7.1,4.079C54.788,100.744,41.93,94.566,46.163,97.966Zm36.323,22C82.6,118.257,81.308,121.431,82.485,119.969Zm3.734,1.571c1.99-1.926.083,3.074,3.3-.472.033-2.538-.1-4.037-3.7-.953-.994.551-1.435,2.886.4,1.425ZM26.956,84.323C26.344,81.92,22.671,81.93,26.956,84.323Zm3.984,2.612C29.459,84.48,25.658,84.712,30.94,86.935Zm22.682,13.678c2.216,1.969,10.17,1.443,2.689.244C55.2,99.219,49.278,99.612,53.622,100.613ZM84.8,119.87C88.205,117.009,81.5,121.144,84.8,119.87Zm7.089,4.869C91.908,123.82,90.417,125.14,91.887,124.738Zm.011-1.286C95.672,119.457,88.243,123.689,91.9,123.452ZM17.15,76.113c-3.216-4.588-2-6.65-5.1-10.4-.589-2.867-5.323-9.367-2.448-2.482,2.631,4.03,3.411,10.267,7.55,12.88Zm73.564,46.069C97.66,117.694,87.865,120.229,90.713,122.182Zm5.3,2.076C99.492,121.274,93.813,123.635,96.014,124.258ZM25.775,79.25C26.769,77.769,23.2,79.059,25.775,79.25Zm69.133,43.591c3.366-2.17-.776-1.837-.611.2Zm-45.686-28.8C49.106,92.576,47.441,94.169,49.221,94.045Zm2.823,1.623C51.145,93.854,50.665,95.953,52.044,95.669Zm48.265,28.639c4.314-3.112-2.612-.6-.9.592Zm-1.653-.8C102.172,120.566,94.949,124.813,98.657,123.509Zm8.44,5.618C109.456,127.549,104.23,128.617,107.1,129.127ZM27.938,78.182c3.16.708,12.635,7.785,7.047.491-2.863-.847-1.146-7.846-4.067-6.609,1.96,3.276,1.611,4.666-2.505,2.605-5.168-2.527-2.9,1.249-1.892,2.291-1.38.315,1.821,1.2,1.416,1.221ZM13.532,66.806c.566-2.343-5.214-12.88-2.729-5.282C11.7,63.117,11.606,66.134,13.532,66.806Zm26.441,16.3C38.344,81.747,39.9,82.912,39.974,83.107Zm4.007.934C43.981,81.559,39.551,83.033,43.981,84.041Zm34.749,21.9C78.066,104.248,76.11,105.906,78.73,105.943Zm1.668,1.218C80.149,106.213,79.434,107.345,80.4,107.161Zm13.772,8.678C95.493,114.861,92.516,115.712,94.169,115.839Zm-73.443-47.2C24.515,67.176,16.666,67.6,20.726,68.643ZM75.67,103.255C75.626,100.8,73.253,103.867,75.67,103.255Zm-56.44-38.1C21.663,64.332,16.977,64.613,19.23,65.152Zm7.062,3.422C26.25,67.769,25.546,68.882,26.292,68.574Zm86.158,52.835c3.13-.633,10.263,1.594,11.414-.828-3.8-.094-13.146-2.684-13.588.614l.832.132,1.343.082ZM28.537,69.141C28.594,66.655,26.6,69.047,28.537,69.141ZM9.969,56.257C9.125,51.522,6.76,55.54,9.969,56.257ZM14.4,57.37C14.452,55.848,10.342,56,14.4,57.37Zm2.53,1.245C16.195,58.022,16.356,59.36,16.925,58.615ZM32.852,68.829C33.6,68.139,31.076,68.32,32.852,68.829ZM15.242,55.811C14.812,52.235,10.111,55.275,15.242,55.811ZM6.159,49.918C6.032,48.269,5.274,50.54,6.159,49.918ZM7.512,48.9C7.292,46.942,6.35,49.146,7.512,48.9Zm7.461,4.452c3.156-1.237-5.747-2.564-.645-.232Zm99.874,61.692C116.867,113.193,112.283,114.471,114.847,115.044Zm12.066,6.252C127.723,118.906,124.873,121.612,126.913,121.3ZM15.735,49.442C16.07,47.126,13.232,49.9,15.735,49.442ZM5.117,42.328c-.57-3.269-.491-9.008,4.963-7.07-7.28,1.447,5.042,9.051,3.486,3.047,3.062.151,5.99-1.81,4.382,1.162,6.035-.663,10.215-5.9,16.043-5.161,4.539-.6,9.5-1.057,14.394-2.886,4.022-.289,7.894-4.619,5.691-7.186a62.226,62.226,0,0,0-17.288,1.429c-6.717,1.394-12.819,4.048-19.6,5.188-6.609.889,1.327,2.444-.566,2.792-3.445,1.2,4.112,2-.446,3.265-2.815-.535-5.746-1.5-4.543-4.471-6.327.824-11.89,3.448-6.889,9.888l.371,0ZM20.37,34.561c1.481-5.465,7.946,4.5,2.429.727A3.437,3.437,0,0,0,20.37,34.561Zm.288-2.651C22.8,30.318,21.794,32.807,20.658,31.91Zm2.718.046c.2-2.515,6.227,1.33.994.9l-.994-.9Zm3.719-1.5C28.455,28.87,27.489,31.87,27.094,30.461Zm.953-.637c2.264-2.718,12.808-1.736,5.09-.267C31.067,28,29.482,30.475,28.047,29.824ZM41.81,27.7C41.47,20.275,48.652,30.337,41.81,27.7Zm3.907-.023c1.427-3.74,5.543-1.5.663-.753C46.485,27.327,46.234,28.86,45.717,27.679ZM14.2,47.523C18.461,44.91,9.668,45.256,14.2,47.523Zm3.156.874C18.848,46.808,14.1,47.752,17.352,48.4ZM8.056,41.8C10.493,39.929,5.17,41.091,8.056,41.8Zm125.978,78.811C134.105,118.44,132.171,121.592,134.034,120.614Zm-12.8-8.738C121.6,109.377,119.588,112.094,121.233,111.876Zm16.321,9.582c3.408.011,10.326-1.062,2.912-1.058C139.3,120.581,133.686,120.544,137.554,121.458ZM20.126,46.863c2.759-.187,4.314-3.04-.537-2.879-7.515-.776,6.631,2.576-.963,1.616C17.608,46.275,20.066,47.05,20.126,46.863Zm2.429,1.23C22.266,46.323,21.7,49.033,22.555,48.093Zm2.882-7.685C26.633,38.923,23.781,40.011,25.438,40.408ZM16.261,25.074c4.926-1.672,11.658-3.554,13.983.825-2.366-2.845-.956-5.649,1.278-1.485,3.16,4.21,4.741-1.915,2.687-3.329,2.343,2.909,5,4.285,1.567.185,3.738-4.495-7.478.588-10.027.535-1.226.55-12.662,2.916-9.487,3.268Zm2.886-5.524c2.808-2.118,9.712,1.263,5.282-2.107C23.995,17.06,14.729,20,19.147,19.549Zm10.238.423c3.284.083-1.416-4.416,2.5-2.377-.641-2.1-4.558-2.492-6.473-3.332C24.325,16.183,27.611,20,29.385,19.973ZM20.943,10.68C22.079,9.139,18.949,11.463,20.943,10.68Zm4.185,1c5.3-.7-1.351-2.279-1.07-.056l1.069.056ZM17.314,5.57c-3.73-4.869,7.014.817,3.223-4.281-3.19-2.537-6.252,2.86-3.223,4.281ZM65.163,31.342c1.711-3.03-7.058-4.086-1.15-1.073.543.181.421,1.282,1.15,1.073Z" transform="translate(0 0)"/>
        <path id="Path_239" data-name="Path 239" d="M30.444,250.95a38.379,38.379,0,0,0-.7,7.519q0,1.037-.936,1.038a1.316,1.316,0,0,1-1.3-.9,11.793,11.793,0,0,0-1.905-3.409,4.583,4.583,0,0,0-2.84-1.37,85.455,85.455,0,0,0-9.49-.3,4.546,4.546,0,0,0-2.272.369q-.334.232-.334,1v15.139q0,.769.968.735,2.976-.034,8.622-.4a1.959,1.959,0,0,0,1.488-.72,9.562,9.562,0,0,0,.752-3.024,1.142,1.142,0,0,1,1.571-1.035c.757.156,1.082.5.97,1.035a49.333,49.333,0,0,0-.6,11.832q.035.867-1.1.936-.937.1-1.169-1-.867-4.176-3.224-4.463a72.638,72.638,0,0,0-7.67-.283c-.4,0-.6.144-.6.434v15.039a2.285,2.285,0,0,0,1.235,2.272,15.065,15.065,0,0,0,4.177.9c1.093.111,1.571.592,1.439,1.437q-.2,1.1-2.942.87a62.467,62.467,0,0,0-13.066.068q-1.439.2-1.437-1.17,0-.871,1.437-1,3.275-.369,3.274-5.748V258.135a6.149,6.149,0,0,0-.785-3.391,6.766,6.766,0,0,0-2.924-2.156q-1.338-.6-1-1.638c.111-.422.29-.658.534-.7a5.649,5.649,0,0,1,1.771.134,86.184,86.184,0,0,0,9.926.334q9.225,0,15.942-.4,2.238-.136,2.24.367a1.033,1.033,0,0,1-.035.267Z" transform="translate(0 -106.783)"/>
        <path id="Path_240" data-name="Path 240" d="M79.1,290.72q0,1.337-1.5,1.169a66.287,66.287,0,0,0-11.428.132,3.517,3.517,0,0,1-1.689-.065c-.212-.135-.316-.5-.316-1.105q0-.8,1.82-1.353t1.821-3.29V255.963a7.8,7.8,0,0,0-.784-3.978,5.087,5.087,0,0,0-2.757-1.97q-1.037-.37-1.038-1.038,0-1,1.5-1.5A21.042,21.042,0,0,0,69.44,245.2a7.76,7.76,0,0,1,2.539-1.2q1.236,0,1.238,1.7,0-.132-.135,3.342-.1,3.308-.065,6.518l.132,29.843a3.844,3.844,0,0,0,1,2.959,6.264,6.264,0,0,0,3.442,1.219q1.5.166,1.5,1.137Z" transform="translate(-26.981 -104.128)"/>
        <path id="Path_241" data-name="Path 241" d="M124.362,304.673q0,.7-2.556,2.121a9.2,9.2,0,0,1-4.094,1.421,2.9,2.9,0,0,1-2.306-1.27q-1-1.27-1.4-1.269a20.854,20.854,0,0,0-3.176,1.369,13.3,13.3,0,0,1-5.781,1.372,6.723,6.723,0,0,1-4.578-1.6A6.1,6.1,0,0,1,98.462,302q0-5.782,13.235-8.287c1.513-.29,2.284-.9,2.3-1.838l.068-2.139q.2-5.48-4.846-5.48-1.438,0-2.725,2.572a4.458,4.458,0,0,1-3.692,2.776q-2.74.265-2.741-2.307,0-1.605,4.077-3.743a17.741,17.741,0,0,1,8.223-2.24q6.783,0,6.717,6.451l-.135,13.768q-.031,2.173,1.838,2.172a10.713,10.713,0,0,0,1.4-.167q1.038-.167,1.2-.167c.645,0,.968.436.968,1.3Zm-10.293-7.618c.023-.558-.107-.927-.386-1.1a1.864,1.864,0,0,0-1.318-.1q-8.055,1.438-8.055,5.247,0,3.844,4.177,3.843a10.174,10.174,0,0,0,3.442-.633q2.075-.738,2.073-1.773l.068-5.48Z" transform="translate(-42.02 -120.052)"/>
        <path id="Path_242" data-name="Path 242" d="M172.209,300.828a6.732,6.732,0,0,1-2.725,5.632,11.932,11.932,0,0,1-7.436,2.089,30.087,30.087,0,0,1-6.283-.668q-2.709-.6-3.142-1.1a18.591,18.591,0,0,1-.267-4.579q0-1.771.8-1.838a1.394,1.394,0,0,1,1.37.868q2.506,4.379,8.088,4.38,4.709,0,4.711-3.277a3.111,3.111,0,0,0-1.07-2.4,17.144,17.144,0,0,0-4.544-2.574q-4.881-2.171-6.517-3.81a6.251,6.251,0,0,1-1.771-4.679,6.528,6.528,0,0,1,2.774-5.614,11.162,11.162,0,0,1,6.883-1.938,25.981,25.981,0,0,1,4.948.434q2.406.435,2.506,1.07.265,1.869,1.1,5.415c.067.288-.246.522-.936.7q-1.1.234-1.472-.367-2.639-4.313-6.684-4.312-4.578,0-4.578,2.941a3.138,3.138,0,0,0,1.236,2.606,31.285,31.285,0,0,0,5.18,2.609,20.993,20.993,0,0,1,5.816,3.308,6.72,6.72,0,0,1,2.005,5.113Z" transform="translate(-65.019 -120.052)"/>
        <path id="Path_243" data-name="Path 243" d="M230.545,290.754q0,1.169-1.571,1.236-2.34.034-6.115.334a2.8,2.8,0,0,1-2.674-.467,69.306,69.306,0,0,1-8.959-11.9.879.879,0,0,0-.768-.534,4.471,4.471,0,0,0-1.97,1,2.7,2.7,0,0,0-1.571,2.471q0,1.138.067,3.278t1.068,2.805a8.617,8.617,0,0,0,3.242.736q1.571.2,1.572,1.169c0,.513-.084.831-.251.952a2.419,2.419,0,0,1-1.321.084,76.923,76.923,0,0,0-11.295.334q-2.005.167-2.173-.5a2.571,2.571,0,0,1-.068-.668c0-.689.68-1.214,2.041-1.568q1.838-.471,1.837-4.312V256a9.365,9.365,0,0,0-.536-3.809,5.071,5.071,0,0,0-3.075-2.14q-1.1-.365-1.1-1.035,0-.972,1.571-1.5a20.955,20.955,0,0,0,4.779-2.307,7.25,7.25,0,0,1,2.272-1.2q1.372,0,1.372,1.739,0-.236-.035,3.308-.036,3.275-.032,6.551l.067,20.92c0,.58.155.868.467.868a3.022,3.022,0,0,0,1.539-.868q2.774-2.173,6.816-5.681a2.3,2.3,0,0,0,.8-1.337c0-.6-.9-1.026-2.706-1.269a1.109,1.109,0,0,1-1.105-1.3q.1-1.169,1.17-1a57.977,57.977,0,0,0,7.018.369q3.21.031,6.385.033c.689.023,1.035.434,1.035,1.237q0,1.135-1.637,1.237a12.308,12.308,0,0,0-4.846,1.169,24,24,0,0,0-6.786,5.046.61.61,0,0,0-.267.5,6.669,6.669,0,0,0,1.137,2.24,47.514,47.514,0,0,0,7.886,9.591,7.054,7.054,0,0,0,4.444,2.038,4.834,4.834,0,0,1,1.9.218q.37.218.37,1.152Z" transform="translate(-84.039 -104.129)"/>
        <path id="Path_244" data-name="Path 244" d="M0,0H146.75V188.6H0Z" transform="translate(0)" fill="rgba(224,57,57,0)"/>
      </g>
    </g>
  </g>
</svg>
